<?xml version="1.0" encoding="UTF-8" standalone="no"?>
<svg
   xmlns:dc="http://purl.org/dc/elements/1.1/"
   xmlns:cc="http://creativecommons.org/ns#"
   xmlns:rdf="http://www.w3.org/1999/02/22-rdf-syntax-ns#"
   xmlns:svg="http://www.w3.org/2000/svg"
   xmlns="http://www.w3.org/2000/svg"
   viewBox="0 0 380.69333 149.57333"
   height="149.57333"
   width="380.69333"
   xml:space="preserve"
   id="svg2"
   version="1.1"><metadata
     id="metadata8"><rdf:RDF><cc:Work
         rdf:about=""><dc:format>image/svg+xml</dc:format><dc:type
           rdf:resource="http://purl.org/dc/dcmitype/StillImage" /></cc:Work></rdf:RDF></metadata><defs
     id="defs6"><clipPath
       id="clipPath20"
       clipPathUnits="userSpaceOnUse"><path
         id="path18"
         d="M 0,0 H 2855 V 1121.85 H 0 Z" /></clipPath></defs><g
     transform="matrix(1.3333333,0,0,-1.3333333,0,149.57333)"
     id="g10"><g
       transform="scale(0.1)"
       id="g12"><g
         id="g14"><g
           clip-path="url(#clipPath20)"
           id="g16"><path
             id="path22"
             style="fill:#ef7b7f;fill-opacity:1;fill-rule:evenodd;stroke:none"
             d="m 1272.75,82.5312 c -2.81,-1.5195 -6.26,-4.121 -7.04,-6.8828 -9.44,-33.9375 -39.86,-38.2578 -66.41,-45.7578 -103.02,-29.160131 -175.32,29.3008 -170.36,135.1014 2.45,52.559 23.46,98.418 45.1,144.602 11.96,25.597 26.39,50.457 29.54,79.34 3.65,33.16 -13.71,50.82 -47.12,47.339 -9.8,-1.019 -19.69,-3.882 -28.96,-7.421 -49.723,-19.04 -91.816,-50.622 -132.477,-83.961 -37.328,-30.598 -73.203,-63 -109.753,-94.598 102.261,197.059 205.222,392.66 317.71,582.937 5.46,9.262 10.56,19.161 13.43,29.442 4.43,15.84 -12.11,47.879 -26.9,55.762 -13.46,7.16 -23.7,-1.204 -30.88,-9.321 -21.7,-24.519 -41.95,-50.66 -41.05,-86.062 0.74,-28.641 -7.99,-54.078 -21.787,-78.68 C 898.176,570.293 800.676,396.113 703.613,221.73 c -10.902,-19.597 -20.23,-40.296 -28.004,-61.339 -6.457,-17.481 -0.14,-34.938 15.329,-43.621 15.863,-8.86 22.46,8.3 30.171,18.203 44.008,56.5 94.852,106.437 148.145,153.859 35.598,31.66 71.711,63 115.238,83.66 11.004,5.238 23.858,12.801 35.038,1.762 11.34,-11.223 3.27,-23.641 -2.17,-34.641 -23.141,-46.64 -42.493,-94.621 -46.52,-147.062 -6.336,-82.52 25.015,-157.9416 101.57,-181.8596 81.91,-25.6016 156.25,-3.10156 224.22,45.0195 9.64,6.8203 23.13,18.8203 14.15,30.6407 -10.67,14.0194 -25.73,2.8789 -38.03,-3.8204" /><path
             id="path24"
             style="fill:#ef7b7f;fill-opacity:1;fill-rule:evenodd;stroke:none"
             d="m 891.379,818.512 c 11.559,116.5 -47.258,179.32 -154.902,164.64 -111.192,-15.179 -198.469,-76.582 -268.524,-162.66 -23.738,-29.16 -28.66,-63.68 -16.086,-99.68 6.442,-18.441 22.305,-29.679 37.371,-16.66 42.574,36.758 90.485,70.5 104.914,130.34 17.36,71.879 66.989,109.379 135.25,123.262 71.61,14.578 110.356,-18.481 114.184,-91.863 3.008,-57.719 -6,-113.84 -24.715,-167.981 -66.309,-191.719 -183.742,-346.656 -342.07,-471.078 -68.699,-54 -144.176,-94.02 -231.871,-108.801 -92.778,-15.64 -162.5745,38 -169.7503,131.563 -4.3828,56.879 3.1914,112.117 19.8515,165.976 54.3318,175.364 156.2778,320.301 287.7388,445.403 76.914,73.199 161.238,136.418 264.238,168.357 76.156,23.62 152.07,29.32 223.105,-18.02 2.969,-1.98 5.559,-5.04 9.446,-2.9 4.503,2.48 5.261,6.76 4.464,11.54 -1.972,12.04 -7.933,21.84 -16.363,30.42 -21.566,22.02 -48.629,33.8 -77.769,41.02 -85.364,21.14 -166.817,3.92 -244.766,-30.6 C 380.617,987.934 253.16,869.711 149.844,724.453 64.918,605.07 4.82812,475.41 0.203125,325.332 -4.32031,196.293 67.0312,106.109 193.051,85.4297 c 85.922,-14.1016 164.168,12.1601 237.113,55.0823 127.137,74.781 224.699,180.781 306.434,301.922 77.23,114.457 140.808,235.398 154.781,376.078" /><path
             id="path26"
             style="fill:#ef7b7f;fill-opacity:1;fill-rule:evenodd;stroke:none"
             d="m 2223.97,770.758 c 80.16,112.359 168.98,208.234 297.31,266.572 57.74,26.24 117.97,41.7 182.1,30.04 116,-21.1 141.07,-136.378 99.58,-220.058 -37.19,-75.058 -104.9,-112.121 -180.49,-136.718 -39.83,-12.942 -80.98,-20.442 -116.3,-19.684 -102,-3.418 -190,19.129 -274.98,62.668 -7.1,3.621 -15.57,5.461 -7.22,17.18 z m -269,-428.946 c 61.37,124.219 139.05,237.168 215.9,351.766 8.38,12.5 17.41,30.113 28.75,33.75 10.49,3.36 18.64,-3.887 39.38,-12.5 107.64,-44.707 219.2,-58.816 333.56,-40.457 81.12,13.02 155.46,44.422 215.25,103.781 72.05,71.52 88.35,179.039 39.04,254.738 -45.96,70.56 -142.4,103.46 -236.19,82.92 -95.53,-20.94 -176.27,-68.82 -249.04,-132.24 -54.76,-47.722 -142.8,-156.828 -163.87,-186.398 -3.42,-4.789 -5.54,-6.426 -7.81,-7.031 -2.35,-0.625 -6.18,1.515 -8.95,3.273 -110,69.688 -160.12,132.352 -86.99,189.852 16.84,12.363 32.69,25.084 72.06,11.742 3.2,-1.078 7.12,-0.395 9.68,0.5 11.24,3.894 28.15,7.012 16.73,21.632 -9.62,12.34 -26.92,10.7 -37.4,8.53 -73.98,-15.24 -126.7,-56.154 -122.68,-114.807 3.27,-47.66 47.11,-87.695 128.43,-145.422 2.5,-1.777 7.3,-3.879 8.18,-5.613 0.88,-1.73 -1.87,-5.281 -4.5,-9.078 -22.9,-33.02 -46.51,-69.477 -68.63,-103.039 -60.23,-91.481 -122.15,-182.02 -166.98,-282.598 -9.41,-21.082 -18.13,-42.441 -23.99,-64.48 -2.46,-1.961 -4.89,-3.903 -7.4,-5.84 -24.59,-18.82 -50.98,-34.762 -78.37,-49.063 -33.26,-17.359 -66.8,-34.418 -104.51,-39.757 -13.08,-1.86 -27.59,-3.461 -30.87,15.679 -4.55,26.578 21.56,80.481 45.86,94.52 38.38,22.18 42.47,92.64 7.25,120.32 -9.05,7.121 -16.84,7.219 -23.76,-1.64 -5.66,-7.2 -10.3,-15.239 -15.16,-23.04 -53.52,-85.902 -126.18,-151.582 -214,-200.179 -18.07,-10 -41.51,-30.02 -60.98,-7.922 -19.04,21.582 -0.54,44.461 11.75,63.582 49.95,77.598 116.58,137.48 196.58,182.738 17.76,10.039 36.99,15.699 56.94,17.84 40.1,4.32 69.48,-11.301 87.08,-48.84 4.4,-9.398 11.72,-20.64 25.19,-12.578 12.14,7.238 16.66,17.699 9.41,32.02 -3.91,7.699 -8.51,14.359 -14.65,20.121 -25.51,24 -56.57,35.039 -90.75,37.16 -79.96,4.976 -148.56,-25.5 -211.12,-71.621 -57.74,-42.582 -103.3,-95.5 -123.63,-166 -1.91,-6.641 -3.09,-12.942 -3.77,-18.961 -37.45,-22.781 -77.35,-40.52 -122.01,-47.942 -35.14,-5.82 -46.44,7.122 -37.61,42.243 7.99,31.82 22.36,61.14 37.55,89.98 75.16,142.758 159.62,280.219 237.85,421.238 28.36,51.141 56.52,102.403 84.01,154 10.46,19.641 1.83,49.961 -16.76,65.641 -14.15,11.941 -28.23,6.078 -38.05,-4.32 -20.79,-21.981 -41.4,-47.02 -39.13,-78.68 2.6,-36.102 -10.76,-65.121 -27.54,-94.34 -79.4,-138.461 -159.26,-276.68 -237.81,-415.621 -26.89,-47.559 -46.74,-98.301 -46.52,-154.301 0.14,-35.136 18.8,-52.519 53.51,-51.16 34.6,1.344 67.35,11.301 99.08,24.621 18.57,7.781 36.23,17.301 53.65,27.66 5.24,-33.879 34.94,-51.699 79.49,-43.738 28.38,5.078 53.17,19.258 77.35,34.141 48.63,29.957 90.64,68.179 132.87,107.218 -5.48,-26.621 -20.6,-49.261 -24.89,-75.781 -4.06,-25.258 6.5,-45.238 29.9,-53.758 14.57,-5.32 29.75,-6 44.52,-2.722 72.39,16.062 136.68,47 194.1,90.261 -1.77,-12.761 -2.47,-25.781 -1.37,-39.179 2.61,-32.262 18.12,-46.903 50.42,-45.781 14.07,0.48 28.28,2.98 42.04,6.218 51.76,12.223 97.92,34.184 140.53,62.203 -3.49,-9.421 -6.54,-20.3 -7.06,-31.222 -2.87,-62.039 38.69,-78.957 90.15,-64.598 24.25,6.758 46.22,18.957 67.5,32.238 48.47,30.18 90.49,68.301 133.4,107.903 -4.09,-37.242 -4.92,-73.942 -2.21,-110.703 5.34,-72.563 49.82,-127.8012 117.63,-141.2426 75.31,-14.9375 143.87,3.3008 205.14,49.6211 9.65,7.3205 18,15.5585 18.74,28.3435 0.31,5.739 -4.37,8.797 -10.01,8.797 -14.07,0 -25.95,-5.457 -35.5,-15.719 -1.61,-1.722 -2.37,-4.441 -3.09,-6.82 -4.9,-16.121 -17.73,-23.2421 -31.88,-29.4218 -23.3,-10.1601 -47.98,-14.4804 -72.89,-16.7773 -59.25,-5.461 -109.4,28.1992 -126.12,85.0391 -12.4,42.18 -7.35,84.762 0.04,127.223 1.69,9.679 8.15,13.418 15.07,18.437 24.93,18.082 38.82,66.422 27.2,95.102 -6.16,15.218 -11.14,34.461 -30.05,36.64 -18.48,2.117 -22.37,-17.801 -29.88,-29.801 -55.49,-88.761 -129.91,-156.742 -221.99,-205.48 -17.55,-9.301 -38.94,-22.199 -55.22,-4.578 -16.21,17.539 -1.98,38.156 8.49,55.019 51.56,82.981 121.61,146.2 207.1,192.559 16.44,8.922 34.48,13.301 52.71,14.859 39.09,3.403 67.63,-12.48 84.65,-49 4.38,-9.418 11.7,-20.66 25.17,-12.718 12.14,7.14 16.4,17.437 9.57,32 -5.26,11.179 -12.94,19.8 -22.13,26.839 -33.46,25.719 -72.32,35.2 -113.34,30.5 -126.26,-14.46 -219.08,-79.242 -282.74,-186.421 -50.78,-38.86 -106.43,-68.5 -170.9,-80.86 -27.15,-5.219 -38.71,6.16 -35.7,34.403 3.61,33.859 17.16,64.418 31.95,94.378" /></g></g></g></g></svg>